<svg width="28" height="14" viewBox="0 0 28 14" fill="none" xmlns="http://www.w3.org/2000/svg">
<path d="M20.1382 10.0134L24.6613 4.62881C24.7507 4.51919 24.7934 4.37878 24.7801 4.23794C24.7668 4.09711 24.6987 3.96715 24.5904 3.87616C24.482 3.78517 24.3423 3.74047 24.2012 3.7517C24.0602 3.76294 23.9293 3.82922 23.8368 3.93621L19.7111 8.84664L18.187 7.15318C18.1402 7.09874 18.083 7.05419 18.0188 7.02216C17.9546 6.99012 17.8846 6.97124 17.813 6.96664C17.7414 6.96203 17.6696 6.97179 17.6018 6.99533C17.534 7.01887 17.4716 7.05573 17.4183 7.10374C17.3649 7.15174 17.3217 7.20992 17.2912 7.27487C17.2606 7.33981 17.2434 7.4102 17.2404 7.4819C17.2375 7.55361 17.2489 7.62518 17.274 7.6924C17.2991 7.75963 17.3374 7.82116 17.3867 7.87337L19.3251 10.0272C19.3756 10.0833 19.4373 10.1282 19.5062 10.1589C19.5752 10.1897 19.6498 10.2056 19.7253 10.2056H19.7344C19.8115 10.2044 19.8875 10.1866 19.9572 10.1534C20.0269 10.1203 20.0886 10.0725 20.1382 10.0134Z" fill="white"/>
</svg>
