<svg width="35" height="23" viewBox="0 0 35 23" fill="none" xmlns="http://www.w3.org/2000/svg">
<g style="mix-blend-mode:luminosity" opacity="0.5" clip-path="url(#clip0_1367_2064)">
<path d="M0.792559 0H17.2971C21.5513 0 25.0049 3.382 25.0049 7.54762C25.0049 11.7132 21.5509 15.0952 17.2967 15.0952H11.4011C5.10869 15.0948 0 10.0926 0 3.93085V0.776047C0 0.347567 0.354962 0 0.792559 0Z" fill="url(#paint0_linear_1367_2064)"/>
<path d="M34.2074 23L17.7029 23C13.4487 23 9.99471 19.618 9.99471 15.4524C9.99471 11.2868 13.4487 7.90476 17.7029 7.90476H23.5985C29.8909 7.90476 35 12.907 35 19.0687V22.224C35 22.6524 34.645 23 34.2074 23Z" fill="url(#paint1_linear_1367_2064)"/>
</g>
<defs>
<linearGradient id="paint0_linear_1367_2064" x1="3.48571" y1="-2.80724" x2="20.2739" y2="15.1944" gradientUnits="userSpaceOnUse">
<stop stop-color="#8E92FF"/>
<stop offset="1" stop-color="#AEA8FF"/>
</linearGradient>
<linearGradient id="paint1_linear_1367_2064" x1="14.3475" y1="8.15866" x2="31.1357" y2="26.1603" gradientUnits="userSpaceOnUse">
<stop stop-color="#686AFF"/>
<stop offset="1" stop-color="#7B67FF"/>
</linearGradient>
<clipPath id="clip0_1367_2064">
<rect width="35" height="23" fill="white"/>
</clipPath>
</defs>
</svg>
