<svg width="120" height="120" viewBox="0 0 120 120" fill="none" xmlns="http://www.w3.org/2000/svg">
<rect width="120" height="120" rx="60" fill="#7D67FF" fill-opacity="0.2"/>
<path fill-rule="evenodd" clip-rule="evenodd" d="M88.5967 49.7127C89.2877 48.963 89.8267 48.0823 90.1828 47.1209C90.539 46.1596 90.7054 45.1363 90.6726 44.1095C90.6397 43.0827 90.4082 42.0726 89.9913 41.1368C89.5744 40.2009 88.9803 39.3578 88.2429 38.6553C87.5054 37.9529 86.6391 37.405 85.6933 37.043C84.7476 36.6809 83.741 36.5117 82.7309 36.5452C81.7209 36.5786 80.7272 36.8139 79.8066 37.2377C78.886 37.6614 78.0565 38.2654 77.3655 39.0151L53.6493 64.7425L41.9335 54.1622C40.3985 52.865 38.4276 52.2252 36.4371 52.3778C34.4466 52.5305 32.5925 53.4637 31.2663 54.9803C29.9402 56.4969 29.2459 58.4781 29.3301 60.5055C29.4143 62.5328 30.2705 64.4475 31.7177 65.8451L49.026 81.4848C50.5237 82.8372 52.4812 83.5423 54.4823 83.4503C56.4835 83.3583 58.3704 82.4764 59.7418 80.9922L88.5967 49.7127Z" fill="#7D67FF"/>
</svg>
