<svg width="97" height="20" viewBox="0 0 97 20" fill="none" xmlns="http://www.w3.org/2000/svg">
<path d="M7.94146 15.8242C3.50489 15.8242 0 12.3297 0 7.91209C0 3.49451 3.50489 0 7.94146 0C10.3594 0 12.4446 1.03297 13.7977 2.54945C14.0417 2.79121 14.1527 3.14286 14.1527 3.42857C14.1527 4.13187 13.5759 4.7033 12.8439 4.7033C12.5111 4.7033 12.134 4.5055 11.8013 4.1978C10.8696 3.16483 9.53862 2.48352 7.94146 2.48352C5.01332 2.48352 2.68412 4.87912 2.68412 7.91209C2.68412 10.9231 5.01332 13.3187 7.94146 13.3187C10.2485 13.3187 12.2227 11.8242 12.9104 9.53846H9.11715C8.42948 9.53846 7.89709 9.01099 7.89709 8.35165C7.89709 7.67033 8.42948 7.14286 9.11715 7.14286H14.6407C15.3062 7.14286 15.8385 7.67033 15.8385 8.41758C15.7276 12.044 12.4889 15.8242 7.94146 15.8242Z" fill="#B1B8BE"/>
<path d="M23.4038 15.8242C20.032 15.8242 17.5253 13.2527 17.5253 10C17.5253 6.74725 20.032 4.17582 23.4038 4.17582C26.7977 4.17582 29.2822 6.74725 29.2822 10C29.2822 13.2527 26.7977 15.8242 23.4038 15.8242ZM23.4038 13.5824C25.3558 13.5824 26.8199 11.956 26.8199 10C26.8199 8.02198 25.3558 6.41758 23.4038 6.41758C21.4517 6.41758 19.9876 8.02198 19.9876 10C19.9876 11.956 21.4517 13.5824 23.4038 13.5824Z" fill="#B1B8BE"/>
<path d="M31.6605 14.5714V9.2967C31.6605 6.15385 33.8566 4.17582 36.6516 4.17582C39.4466 4.17582 41.6427 6.15385 41.6427 9.2967V14.5714C41.6427 15.2527 41.0882 15.8022 40.4227 15.8022C39.735 15.8022 39.2026 15.2527 39.2026 14.5714V9.20879C39.2026 7.38462 38.0713 6.41758 36.6516 6.41758C35.2319 6.41758 34.1006 7.38462 34.1006 9.20879V14.5714C34.1006 15.2527 33.5682 15.8022 32.8805 15.8022C32.1928 15.8022 31.6605 15.2527 31.6605 14.5714Z" fill="#B1B8BE"/>
<path d="M49.6097 15.8242C46.4153 15.8242 43.9974 13.2527 43.9974 10C43.9974 6.74725 46.4153 4.17582 49.6097 4.17582C51.0294 4.17582 52.316 4.68132 53.292 5.56044V5.40659C53.292 4.72528 53.8244 4.1978 54.5121 4.1978C55.1997 4.1978 55.7321 4.72528 55.7321 5.40659V14.1758C55.7321 17.4725 53.0702 20 49.7428 20C47.8572 20 46.371 19.2088 45.5058 18.2418C45.284 17.978 45.1509 17.6703 45.1509 17.4286C45.1509 16.7473 45.6833 16.2857 46.3488 16.2857C46.8368 16.2857 47.103 16.5714 47.4136 16.8352C48.0125 17.3846 48.7667 17.7582 49.7428 17.7582C51.6727 17.7582 53.1367 16.2857 53.2698 14.4615C52.2938 15.3187 51.0294 15.8242 49.6097 15.8242ZM49.8759 13.5824C51.7392 13.5824 53.2033 12.1319 53.292 10.1538V10C53.292 7.95604 51.7836 6.41758 49.8759 6.41758C47.9681 6.41758 46.4597 7.95604 46.4597 10C46.4597 12.044 47.9681 13.5824 49.8759 13.5824Z" fill="#B1B8BE"/>
<path d="M58.5658 6.63736C57.9447 6.63736 57.4345 6.13187 57.4345 5.51648C57.4345 4.87912 57.9447 4.3956 58.5658 4.3956H59.3644V2.74725C59.3644 2.06593 59.8968 1.53846 60.5844 1.53846C61.2721 1.53846 61.8045 2.06593 61.8045 2.74725V4.3956H64.3999C65.021 4.3956 65.5312 4.87912 65.5312 5.51648C65.5312 6.13187 65.021 6.63736 64.3999 6.63736H61.8045V10.6154C61.8045 12.5495 62.8915 13.5385 64.3999 13.5385C65.021 13.5385 65.5312 14.044 65.5312 14.6593C65.5312 15.2967 65.021 15.8022 64.3999 15.8022C61.5383 15.8022 59.3644 13.8022 59.3644 10.6154V6.63736H58.5658Z" fill="#B1B8BE"/>
<path d="M67.6426 14.5714V5.40659C67.6426 4.72528 68.175 4.1978 68.8626 4.1978C69.5503 4.1978 70.0827 4.72528 70.0827 5.40659V14.5714C70.0827 15.2527 69.5503 15.8022 68.8626 15.8022C68.175 15.8022 67.6426 15.2527 67.6426 14.5714ZM68.8626 2.92308C68.064 2.92308 67.4207 2.26374 67.4207 1.49451C67.4207 0.703297 68.064 0.0659345 68.8626 0.0659345C69.6612 0.0659345 70.3045 0.703297 70.3045 1.49451C70.3045 2.26374 69.6612 2.92308 68.8626 2.92308Z" fill="#B1B8BE"/>
<path d="M72.9283 14.5714V9.2967C72.9283 6.15385 75.1244 4.17582 77.9195 4.17582C80.7145 4.17582 82.9106 6.15385 82.9106 9.2967V14.5714C82.9106 15.2527 82.356 15.8022 81.6905 15.8022C81.0029 15.8022 80.4705 15.2527 80.4705 14.5714V9.20879C80.4705 7.38462 79.3392 6.41758 77.9195 6.41758C76.4998 6.41758 75.3684 7.38462 75.3684 9.20879V14.5714C75.3684 15.2527 74.836 15.8022 74.1484 15.8022C73.4607 15.8022 72.9283 15.2527 72.9283 14.5714Z" fill="#B1B8BE"/>
<path d="M90.8775 15.8242C87.6832 15.8242 85.2653 13.2527 85.2653 10C85.2653 6.74725 87.6832 4.17582 90.8775 4.17582C92.2972 4.17582 93.5838 4.68132 94.5599 5.56044V5.40659C94.5599 4.72528 95.0923 4.1978 95.7799 4.1978C96.4676 4.1978 97 4.72528 97 5.40659V14.1758C97 17.4725 94.3381 20 91.0106 20C89.1251 20 87.6388 19.2088 86.7737 18.2418C86.5519 17.978 86.4188 17.6703 86.4188 17.4286C86.4188 16.7473 86.9512 16.2857 87.6167 16.2857C88.1047 16.2857 88.3709 16.5714 88.6814 16.8352C89.2804 17.3846 90.0346 17.7582 91.0106 17.7582C92.9405 17.7582 94.4046 16.2857 94.5377 14.4615C93.5617 15.3187 92.2972 15.8242 90.8775 15.8242ZM91.1437 13.5824C93.0071 13.5824 94.4711 12.1319 94.5599 10.1538V10C94.5599 7.95604 93.0515 6.41758 91.1437 6.41758C89.236 6.41758 87.7276 7.95604 87.7276 10C87.7276 12.044 89.236 13.5824 91.1437 13.5824Z" fill="#B1B8BE"/>
</svg>
